<?xml version="1.0" encoding="UTF-8" standalone="no"?>
<!DOCTYPE svg PUBLIC "-//W3C//DTD SVG 1.1//EN" "http://www.w3.org/Graphics/SVG/1.1/DTD/svg11.dtd">
<svg version="1.1" xmlns="http://www.w3.org/2000/svg" xmlns:xlink="http://www.w3.org/1999/xlink" preserveAspectRatio="xMidYMid meet" viewBox="-1 220.24008545867272 896.3933319313912 209.22107092091485" width="895.39" height="205.22"><defs><path d="M711.9 227.07C711.9 227.07 714.72 220.24 723.1 221.36C731.49 222.49 788.32 232.21 815.36 244.88C842.41 257.55 872.9 272.52 891.98 295.15C897.04 301.17 894.98 305.56 894.98 305.56C894.28 310.63 888.69 351.13 887.99 356.2C887.99 356.2 885.97 366.34 876.27 369.04C866.57 371.74 676.68 424.55 676.68 424.55C676.68 424.55 666.51 426.9 666.51 416.33C666.51 411.05 666.51 368.75 666.51 363.47C666.51 363.47 667.54 357.12 670.02 349.67C672.51 342.23 711.9 227.07 711.9 227.07" id="b5KdInqnxu"></path><path d="M866.25 345.63C836.25 316.64 765 282.87 712.21 277.79C710.72 277.67 709.28 278.57 708.8 280.03C708.8 280.03 666.45 406.73 666.45 408.83C666.45 409.86 666.92 410.82 667.71 411.46C668.29 411.91 669.01 412.15 669.73 412.15C670 412.15 670.27 412.12 670.54 412.06C690.38 406.53 849.14 362.33 868.99 356.81C870.25 356.48 870.88 355.75 871.1 354.46C871.5 352.2 870.58 349.81 866.25 345.63" id="d1o4xMzQZI"></path><path d="M666.51 410.19C666.51 381.14 666.51 365 666.51 361.77C666.51 361.77 702.48 280.24 709.67 230.68C822.63 247.14 876.64 306.36 876.64 306.36C876.27 309.58 874.41 325.7 871.07 354.7L666.51 410.19Z" id="kCedh0pSu"></path><path d="M715 379.58C715 389.25 707.23 397.09 697.64 397.09C688.05 397.09 680.28 389.25 680.28 379.58C680.28 369.89 688.05 362.06 697.64 362.06C707.23 362.06 715 369.89 715 379.58" id="a34Hj72brQ"></path><path d="M748.73 352.34C748.73 362.02 740.96 369.85 731.37 369.85C721.78 369.85 714.01 362.02 714.01 352.34C714.01 342.66 721.78 334.82 731.37 334.82C740.96 334.82 748.73 342.66 748.73 352.34" id="cjS566bVD"></path><path d="M789.2 359.15C789.2 368.83 781.44 376.66 771.84 376.66C762.25 376.66 754.49 368.83 754.49 359.15C754.49 349.47 762.25 341.63 771.84 341.63C781.44 341.63 789.2 349.47 789.2 359.15" id="amjQUe0ax"></path><path d="M822.93 331.92C822.93 341.59 815.17 349.43 805.57 349.43C795.98 349.43 788.22 341.59 788.22 331.92C788.22 322.24 795.98 314.4 805.57 314.4C815.17 314.4 822.93 322.24 822.93 331.92" id="a89RxBJBc"></path><path d="M863.41 338.73C863.41 348.4 855.64 356.24 846.05 356.24C836.46 356.24 828.69 348.4 828.69 338.73C828.69 329.04 836.46 321.21 846.05 321.21C855.64 321.21 863.41 329.04 863.41 338.73" id="bhOORTTZU"></path><path d="M876.28 297.64C846.27 268.65 765.01 235.21 712.21 230.13C710.72 230 709.28 230.91 708.79 232.37C708.79 232.37 675.18 326.51 667.02 352.34C665.84 356.07 666.45 360.91 666.45 361.17C666.45 362.19 666.91 363.17 667.71 363.8C668.29 364.25 669.01 364.49 669.73 364.49C670 364.49 670.27 364.45 670.53 364.4C691.31 359.12 857.51 316.93 878.29 311.65C879.54 311.33 880.49 310.3 880.71 309.01C881.11 306.75 880.61 301.82 876.28 297.64" id="a14ivB8fm7"></path><path d="M876.28 297.64C846.27 268.65 765.01 235.21 712.21 230.13C710.72 230 709.28 230.91 708.79 232.37C708.79 232.37 666.45 352.26 666.45 354.36C666.45 355.38 666.91 356.36 667.71 356.99C668.29 357.44 669.01 357.68 669.73 357.68C670 357.68 670.27 357.64 670.53 357.59C690.9 352.32 853.85 310.17 874.21 304.9C875.47 304.57 876.41 303.55 876.64 302.25C877.04 300 880.61 301.82 876.28 297.64" id="aQHzhIsvD"></path><path d="M795.44 292.09L766.42 295.01L754.24 278.57L783.01 275.13L795.44 292.09ZM712.49 326.81L742.56 323.23L752.26 336.45L789.92 326.71L783.71 318.31L812.16 314.92L816.01 320.18L853.59 310.26L853.39 310L855.58 309.74C870.21 305.88 878.33 303.74 879.96 303.31C879.3 301.47 878.2 299.49 876.28 297.64C872.14 293.65 866.97 289.58 861.11 285.5C859.5 285.66 851.48 286.47 837.03 287.92L823.93 270.25C829.66 269.57 832.85 269.19 833.48 269.11C810.31 257.12 782.68 246.23 756.48 238.91C757.13 239.8 760.36 244.21 766.17 252.15L736.84 255.09L725.59 239.89C739.86 238.19 747.79 237.24 749.38 237.06C736.22 233.68 723.54 231.22 712.21 230.13C710.72 230.01 709.28 230.91 708.79 232.37C708.79 232.37 699.51 256.79 690.12 285.07C691.68 284.96 699.44 284.42 713.42 283.44L724.94 299.17L694.32 302.24C690.19 296.77 687.89 293.74 687.43 293.13C682.57 307.79 676.85 322.83 672.92 334.82C673.88 336.05 678.65 342.2 687.25 353.27L724.86 343.54L712.49 326.81Z" id="db6rT0CWCN"></path><path d="M733.04 324.8C738.48 323.32 749.36 316.38 760.11 314.89C770.86 313.4 783.93 319.09 787.82 318.63C791.72 318.17 799.94 317.18 803.42 316.77C806.9 316.35 822.51 307.65 831.57 306.38C840.64 305.1 852.79 311.57 857.15 310.36C857.15 310.36 862 311.74 857.15 312.36C852.3 312.97 839.6 307.96 832.56 309.14C822.43 310.85 815.19 316.72 803.42 318.63C796.33 319.78 791.33 320.72 787.09 321.06C779.24 321.7 769.55 315.76 759.65 317.46C749.74 319.16 744.3 325.92 733.04 327.02C726.36 327.67 728.87 325.94 733.04 324.8" id="f3Bt1jdaG"></path><path d="M703.9 344.96C711.95 343.07 721.23 339.91 724.86 343.53C723.65 344 717.6 346.34 706.71 350.56C695.03 352.18 688.54 353.08 687.25 353.26C687.25 353.26 687.87 348.72 703.9 344.96" id="c13zY8zIWc"></path><path d="M770.37 327.58C780.41 325.16 786.99 324.69 789.92 326.71C788.7 327.17 782.58 329.5 771.58 333.68C759.98 335.34 753.54 336.26 752.26 336.45C752.26 336.45 753.92 331.55 770.37 327.58" id="f2hibqUB9o"></path><path d="M833.19 311.84C840.49 309.82 849.91 308.87 852.3 309.43C852.3 309.43 871.58 304.39 879.23 303.5C879.23 303.5 861.66 309.57 856.21 310.99C850.76 312.41 816.4 321.99 816.01 320.18C815.62 318.36 821.94 314.96 833.19 311.84" id="a57jxjm8N"></path><path d="M672.92 334.82C672.92 334.82 672.42 326.67 678.04 311.95C683.66 297.23 686.13 291.41 687.43 293.13C688.73 294.84 683.66 313.54 681.69 318.08C679.72 322.62 676.58 331.97 675.08 333.83C673.59 335.68 672.92 334.82 672.92 334.82" id="c8FDJe3LB"></path><path d="M690.12 285.07C690.12 285.07 690.54 274.68 693.07 267.44C695.6 260.21 700.14 256 700.76 254.3C701.36 252.6 701.23 244.04 702.91 240.07C704.6 236.1 708.03 228.42 712.22 230.13C716.41 231.84 702.8 259.5 701.17 265.03C699.54 270.57 690.12 285.07 690.12 285.07" id="a1Qt1VhSAh"></path><path d="M706.05 283.95C711.5 282.47 722.37 275.53 733.13 274.04C743.88 272.55 756.95 278.24 760.84 277.78C764.73 277.32 772.96 276.34 776.44 275.92C779.92 275.5 795.52 266.8 804.59 265.53C813.66 264.25 825.81 270.72 830.16 269.51C830.16 269.51 835.01 270.89 830.16 271.51C825.32 272.12 812.62 267.11 805.57 268.29C795.44 270 788.21 275.87 776.44 277.78C769.35 278.93 764.35 279.87 760.11 280.21C752.26 280.85 742.57 274.91 732.67 276.61C722.76 278.31 717.31 285.07 706.05 286.17C699.38 286.82 701.89 285.09 706.05 283.95" id="a1MXoFeawY"></path><path d="M719.45 325.98C714.33 326.59 707.25 320.7 694.47 323.01C681.69 325.31 672.92 334.83 672.92 334.83C673 335.22 673.66 338.34 673.74 338.73C673.74 338.73 670.5 336.43 675 335.02C679.5 333.61 684.22 326.63 695.18 325.44C706.14 324.25 709.72 328.09 717.1 328.3C724.48 328.51 719.45 325.98 719.45 325.98" id="c1ncXFrSc7"></path><path d="M859.3 310.09L862.14 307.87L860.25 313.93L851.39 316.68L848.65 309.47L859.3 310.09Z" id="b5BIWQuaqF"></path><path d="M707.83 237.87C717.74 235.11 724.2 240.06 731.37 239.21C738.54 238.35 738.64 240.34 733.13 241.49C727.61 242.63 713.83 237.78 708.13 239.65C702.42 241.53 701.48 247.48 701.48 247.48C701.58 246.89 702.33 242.13 702.42 241.53C702.42 241.53 701.33 239.69 707.83 237.87" id="a359rsPvkL"></path><path d="M721.13 299.55C735.02 297.31 736 293.79 746.41 291.7C755.9 289.78 761.8 294.3 767.13 294.3C775.79 294.3 773.14 288.96 770.23 290.21C764.12 292.84 751.79 285.36 739.66 290.21C733.47 292.68 730.63 296.1 721.13 297.31C711.62 298.51 716.14 300.36 721.13 299.55" id="agnyxkxHE"></path><path d="M791.1 292.53C796.9 291.95 805.86 286.52 814.71 285.07C823.56 283.62 831.48 288.48 837.03 287.92C842.57 287.37 843.71 284.35 839.38 284.8C835.05 285.24 823.98 280.42 813.24 282.55C802.48 284.68 798.26 289.14 791.1 290.21C783.93 291.27 786.75 292.96 791.1 292.53" id="bfFyKqpkp"></path><path d="M696.87 301.98C702.13 299.99 702.49 297.65 697.64 298.93C692.79 300.21 687.18 298.01 682.85 299.75C682.78 299.92 682.42 300.8 681.77 302.37C688.33 303.44 693.37 303.31 696.87 301.98Z" id="d3hTocKsXV"></path><path d="M717.32 253.19C726.46 252.77 731.51 255.63 738.01 254.97C744.49 254.33 741.78 252.65 737.03 252.92C732.29 253.19 725.42 250 715.57 251.92C705.72 253.83 706.21 255.81 698.59 257.48C698.42 257.72 697.04 259.68 696.87 259.93C696.87 259.93 700.31 259.21 704.18 257.48C708.04 255.74 712.26 253.41 717.32 253.19" id="c1yJOvPjk5"></path><path d="M764.74 252.29C770.73 251.93 775.76 247.49 782.16 247.04C781.79 246.91 778.82 245.88 778.45 245.75C778.45 245.75 770.85 249.75 764.74 250.2C758.63 250.64 758.42 252.67 764.74 252.29" id="dp9wu4Zzy"></path><path d="M93.24 420.31C93.24 348.83 93.24 309.12 93.24 301.18C93.24 287.63 87.08 273.49 63.32 273.49C54.55 273.21 45.82 274.79 37.69 278.1C37.69 287.58 37.69 334.99 37.69 420.31L0 420.31C0 325.19 0 272.35 0 261.78C15.68 254.39 36.92 249.77 64.91 249.77C114.43 249.77 126.48 273.79 126.48 300.54C126.48 308.51 126.48 348.39 126.48 420.18L93.24 420.18L93.24 420.31Z" id="algq9RjGM"></path><path d="M214.71 349.46C217.79 380.23 232.58 395.61 259.92 395.61C274.4 395.93 288.75 392.76 301.75 386.38C302.65 388.75 309.79 407.68 310.69 410.05C298.98 416.5 281.16 421.76 255.91 421.76C208.9 421.76 178.99 391.29 178.99 335.32C178.99 281.18 206.38 249.86 249.75 249.86C293.12 249.86 317.74 279.09 316.2 334.76C295.9 337.7 235.01 346.52 214.71 349.46ZM212.92 330.4C219.78 329.36 274.68 320.98 281.54 319.94C281.37 286.39 269.37 272.85 248.9 272.85C227.06 272.85 211.98 290.71 212.92 330.4Z" id="c1QqVPOIfR"></path><path d="M640 291.02L640 271.28L595.01 277.04L595.01 221.24L557.45 221.24C557.45 316.41 557.45 369.28 557.45 379.85C557.45 402.93 570.27 424.76 603 424.76C609.51 424.92 615.99 423.77 622.05 421.38C622.05 419.05 622.05 400.35 622.05 398.01C619.18 399 616.16 399.52 613.12 399.55C600.3 399.55 594.96 391 594.96 378.18C594.96 372.8 594.96 345.86 594.96 297.38L640 291.02Z" id="b31YGmaDMA"></path><path d="M479.79 241.2C470.18 229.32 458.74 217.36 445.13 227.21C438.25 232.18 439.98 240.52 444.68 248.91C443.85 248.37 445.33 252.48 444.56 251.91C429.89 240.94 426.65 241.97 421.33 245.53C408.71 253.97 429.32 272.86 435.91 282.83C437.04 284.54 441.32 286.25 442.3 287.83C442.96 288.9 443.59 289.94 444.19 290.95C443.42 290.71 442.64 290.47 441.83 290.22C434.63 288.12 417.99 285.53 410.3 287.88C362.61 302.44 364.73 309.59 368.03 319C371.32 328.41 384.3 335.73 406.33 324.24C433.34 315.14 455.01 329.36 454.53 343.33C453.86 362.53 446.58 373.13 428.49 372.49C399.88 371.5 399.1 350.19 384.3 335.73C380.31 331.83 370.44 330.38 364.46 334.03C350.5 342.56 358.67 361.55 361.85 367.92C368.52 381.24 376.65 400.51 399.18 418.41C411.04 427.82 441.28 427.5 458.85 424.86C492.26 419.85 499.64 399.99 511.5 365.97C515.97 353.16 516.87 342.77 517.38 328.32C517.88 313.87 508.93 288.97 501.65 275.56C493.82 261.17 489.42 253.08 479.79 241.2Z" id="b3TpGYr3Ee"></path></defs><g><g><g><use xlink:href="#b5KdInqnxu" opacity="1" fill="#f4900c" fill-opacity="1"></use><g><use xlink:href="#b5KdInqnxu" opacity="1" fill-opacity="0" stroke="#000000" stroke-width="1" stroke-opacity="0"></use></g></g><g><use xlink:href="#d1o4xMzQZI" opacity="1" fill="#a0041e" fill-opacity="1"></use><g><use xlink:href="#d1o4xMzQZI" opacity="1" fill-opacity="0" stroke="#000000" stroke-width="1" stroke-opacity="0"></use></g></g><g><use xlink:href="#kCedh0pSu" opacity="1" fill="#a0041e" fill-opacity="1"></use><g><use xlink:href="#kCedh0pSu" opacity="1" fill-opacity="0" stroke="#000000" stroke-width="1" stroke-opacity="0"></use></g></g><g><use xlink:href="#a34Hj72brQ" opacity="1" fill="#be1931" fill-opacity="1"></use><g><use xlink:href="#a34Hj72brQ" opacity="1" fill-opacity="0" stroke="#000000" stroke-width="1" stroke-opacity="0"></use></g></g><g><use xlink:href="#cjS566bVD" opacity="1" fill="#be1931" fill-opacity="1"></use><g><use xlink:href="#cjS566bVD" opacity="1" fill-opacity="0" stroke="#000000" stroke-width="1" stroke-opacity="0"></use></g></g><g><use xlink:href="#amjQUe0ax" opacity="1" fill="#be1931" fill-opacity="1"></use><g><use xlink:href="#amjQUe0ax" opacity="1" fill-opacity="0" stroke="#000000" stroke-width="1" stroke-opacity="0"></use></g></g><g><use xlink:href="#a89RxBJBc" opacity="1" fill="#be1931" fill-opacity="1"></use><g><use xlink:href="#a89RxBJBc" opacity="1" fill-opacity="0" stroke="#000000" stroke-width="1" stroke-opacity="0"></use></g></g><g><use xlink:href="#bhOORTTZU" opacity="1" fill="#be1931" fill-opacity="1"></use><g><use xlink:href="#bhOORTTZU" opacity="1" fill-opacity="0" stroke="#000000" stroke-width="1" stroke-opacity="0"></use></g></g><g><use xlink:href="#a14ivB8fm7" opacity="1" fill="#f4900c" fill-opacity="1"></use><g><use xlink:href="#a14ivB8fm7" opacity="1" fill-opacity="0" stroke="#000000" stroke-width="1" stroke-opacity="0"></use></g></g><g><use xlink:href="#aQHzhIsvD" opacity="1" fill="#f4900c" fill-opacity="1"></use><g><use xlink:href="#aQHzhIsvD" opacity="1" fill-opacity="0" stroke="#000000" stroke-width="1" stroke-opacity="0"></use></g></g><g><use xlink:href="#db6rT0CWCN" opacity="1" fill="#ffcc4d" fill-opacity="1"></use><g><use xlink:href="#db6rT0CWCN" opacity="1" fill-opacity="0" stroke="#000000" stroke-width="1" stroke-opacity="0"></use></g></g><g><use xlink:href="#f3Bt1jdaG" opacity="1" fill="#f4900c" fill-opacity="1"></use><g><use xlink:href="#f3Bt1jdaG" opacity="1" fill-opacity="0" stroke="#000000" stroke-width="1" stroke-opacity="0"></use></g></g><g><use xlink:href="#c13zY8zIWc" opacity="1" fill="#f4900c" fill-opacity="1"></use><g><use xlink:href="#c13zY8zIWc" opacity="1" fill-opacity="0" stroke="#000000" stroke-width="1" stroke-opacity="0"></use></g></g><g><use xlink:href="#f2hibqUB9o" opacity="1" fill="#f4900c" fill-opacity="1"></use><g><use xlink:href="#f2hibqUB9o" opacity="1" fill-opacity="0" stroke="#000000" stroke-width="1" stroke-opacity="0"></use></g></g><g><use xlink:href="#a57jxjm8N" opacity="1" fill="#f4900c" fill-opacity="1"></use><g><use xlink:href="#a57jxjm8N" opacity="1" fill-opacity="0" stroke="#000000" stroke-width="1" stroke-opacity="0"></use></g></g><g><use xlink:href="#c8FDJe3LB" opacity="1" fill="#ffcc4d" fill-opacity="1"></use><g><use xlink:href="#c8FDJe3LB" opacity="1" fill-opacity="0" stroke="#000000" stroke-width="1" stroke-opacity="0"></use></g></g><g><use xlink:href="#a1Qt1VhSAh" opacity="1" fill="#ffcc4d" fill-opacity="1"></use><g><use xlink:href="#a1Qt1VhSAh" opacity="1" fill-opacity="0" stroke="#000000" stroke-width="1" stroke-opacity="0"></use></g></g><g><use xlink:href="#a1MXoFeawY" opacity="1" fill="#f4900c" fill-opacity="1"></use><g><use xlink:href="#a1MXoFeawY" opacity="1" fill-opacity="0" stroke="#000000" stroke-width="1" stroke-opacity="0"></use></g></g><g><use xlink:href="#c1ncXFrSc7" opacity="1" fill="#f4900c" fill-opacity="1"></use><g><use xlink:href="#c1ncXFrSc7" opacity="1" fill-opacity="0" stroke="#000000" stroke-width="1" stroke-opacity="0"></use></g></g><g><use xlink:href="#b5BIWQuaqF" opacity="1" fill="#f4900c" fill-opacity="1"></use><g><use xlink:href="#b5BIWQuaqF" opacity="1" fill-opacity="0" stroke="#000000" stroke-width="1" stroke-opacity="0"></use></g></g><g><use xlink:href="#a359rsPvkL" opacity="1" fill="#f4900c" fill-opacity="1"></use><g><use xlink:href="#a359rsPvkL" opacity="1" fill-opacity="0" stroke="#000000" stroke-width="1" stroke-opacity="0"></use></g></g><g><use xlink:href="#agnyxkxHE" opacity="1" fill="#f4900c" fill-opacity="1"></use><g><use xlink:href="#agnyxkxHE" opacity="1" fill-opacity="0" stroke="#000000" stroke-width="1" stroke-opacity="0"></use></g></g><g><use xlink:href="#bfFyKqpkp" opacity="1" fill="#f4900c" fill-opacity="1"></use><g><use xlink:href="#bfFyKqpkp" opacity="1" fill-opacity="0" stroke="#000000" stroke-width="1" stroke-opacity="0"></use></g></g><g><use xlink:href="#d3hTocKsXV" opacity="1" fill="#f4900c" fill-opacity="1"></use><g><use xlink:href="#d3hTocKsXV" opacity="1" fill-opacity="0" stroke="#000000" stroke-width="1" stroke-opacity="0"></use></g></g><g><use xlink:href="#c1yJOvPjk5" opacity="1" fill="#f4900c" fill-opacity="1"></use><g><use xlink:href="#c1yJOvPjk5" opacity="1" fill-opacity="0" stroke="#000000" stroke-width="1" stroke-opacity="0"></use></g></g><g><use xlink:href="#dp9wu4Zzy" opacity="1" fill="#f4900c" fill-opacity="1"></use><g><use xlink:href="#dp9wu4Zzy" opacity="1" fill-opacity="0" stroke="#000000" stroke-width="1" stroke-opacity="0"></use></g></g></g><g><use xlink:href="#algq9RjGM" opacity="1" fill="#10664a" fill-opacity="0.85"></use><g><use xlink:href="#algq9RjGM" opacity="1" fill-opacity="0" stroke="#000000" stroke-width="1" stroke-opacity="0"></use></g></g><g><use xlink:href="#c1QqVPOIfR" opacity="1" fill="#10664a" fill-opacity="0.85"></use><g><use xlink:href="#c1QqVPOIfR" opacity="1" fill-opacity="0" stroke="#000000" stroke-width="1" stroke-opacity="0"></use></g></g><g><use xlink:href="#b31YGmaDMA" opacity="1" fill="#10664a" fill-opacity="0.85"></use><g><use xlink:href="#b31YGmaDMA" opacity="1" fill-opacity="0" stroke="#000000" stroke-width="1" stroke-opacity="0"></use></g></g><g><use xlink:href="#b3TpGYr3Ee" opacity="1" fill="#10664a" fill-opacity="0.85"></use><g><use xlink:href="#b3TpGYr3Ee" opacity="1" fill-opacity="0" stroke="#000000" stroke-width="1" stroke-opacity="0"></use></g></g></g></svg>