<?xml version="1.0" encoding="UTF-8" standalone="no"?>
<!DOCTYPE svg PUBLIC "-//W3C//DTD SVG 1.1//EN" "http://www.w3.org/Graphics/SVG/1.1/DTD/svg11.dtd">
<svg version="1.1" xmlns="http://www.w3.org/2000/svg" xmlns:xlink="http://www.w3.org/1999/xlink" preserveAspectRatio="xMidYMid meet" viewBox="3.8461538461538964 -215.85329018632785 632.3076923076922 855.8532901863279" width="633.6" height="852.48"><defs><path d="M205.91 546.76C134.44 546.76 94.73 546.76 86.78 546.76C73.24 546.76 59.1 552.92 59.1 576.68C58.82 585.45 60.39 594.18 63.71 602.31C73.19 602.31 120.59 602.31 205.91 602.31L205.91 640C110.8 640 57.96 640 47.39 640C40 624.32 35.38 603.08 35.38 575.09C35.38 525.57 59.39 513.52 86.14 513.52C94.12 513.52 134 513.52 205.78 513.52L205.78 546.76L205.91 546.76Z" id="eCeVcWhu2"></path><path d="M135.07 425.29C165.83 422.21 181.22 407.42 181.22 380.08C181.53 365.6 178.37 351.25 171.99 338.25C174.35 337.35 193.29 330.21 195.66 329.31C202.11 341.02 207.37 358.84 207.37 384.09C207.37 431.1 176.9 461.01 120.92 461.01C66.79 461.01 35.47 433.62 35.47 390.25C35.47 346.88 64.69 322.26 120.37 323.8C123.31 344.1 132.13 404.99 135.07 425.29ZM116.01 427.08C114.96 420.22 106.59 365.32 105.54 358.46C72 358.63 58.45 370.63 58.45 391.1C58.45 412.94 76.32 428.02 116.01 427.08Z" id="c4wCXASswB"></path><path d="M107.68 171.13C76.91 174.21 61.53 188.99 61.53 216.34C61.28 230.84 64.52 245.18 70.97 258.17C68.59 259.07 49.48 266.28 47.09 267.19C40.64 255.48 35.38 237.66 35.38 212.41C35.38 165.41 65.85 135.49 121.82 135.49C175.96 135.49 207.28 162.88 207.28 206.25C207.28 249.62 178.05 274.24 122.38 272.7C119.44 252.39 110.62 191.44 107.68 171.13ZM126.78 168.99C127.83 175.86 136.2 230.76 137.25 237.62C170.79 237.58 184.29 225.57 184.29 204.97C184.29 183.14 166.43 168.05 126.78 168.99Z" id="a2C86nmlWO"></path><path d="M73.62 0L53.88 0L59.65 44.99L3.85 44.99L3.85 82.55C99.01 82.55 151.88 82.55 162.46 82.55C185.53 82.55 207.37 69.73 207.37 37C207.52 30.49 206.38 24.01 203.99 17.95C201.65 17.95 182.95 17.95 180.62 17.95C181.6 20.82 182.12 23.84 182.16 26.88C182.16 39.7 173.61 45.04 160.79 45.04C155.4 45.04 128.47 45.04 79.99 45.04L73.62 0Z" id="mfeiRJrdv"></path><path d="M532.89 55.88C507.42 20.51 477.27 -14.92 443.55 16.73C426.51 32.68 431.64 58.04 444.33 83.25C442.18 81.69 446.3 94.12 444.28 92.46C406.03 60.41 397.87 63.93 384.68 75.4C353.34 102.63 407.4 158.28 425.04 188.12C428.07 193.25 439.11 198.03 441.72 202.76C443.51 205.98 445.2 209.1 446.8 212.12C444.83 211.46 442.82 210.81 440.76 210.16C422.25 204.47 379.73 198.33 360.4 206.33C240.46 256.05 246.5 277.73 255.71 306.21C264.92 334.69 298.55 355.73 353.53 318.19C421.38 287.39 477.73 328.66 477.73 371.53C477.73 430.4 460.18 463.66 414.14 463.66C341.34 463.66 337.45 398.45 298.55 355.73C288.06 344.2 262.86 340.83 247.97 352.66C213.24 380.28 235.69 437.59 244.35 456.77C262.49 496.87 284.85 555.04 343.72 607.47C374.69 635.04 451.52 630.82 495.96 620.85C580.44 601.93 597.44 540.29 624.56 434.78C634.78 395.08 636.15 363.12 636.15 318.79C636.15 274.46 611.19 199.14 591.49 158.83C570.32 115.56 558.41 91.25 532.89 55.88Z" id="a18aicyWQr"></path><path d="M521.8 220.67C519.92 209.6 492.76 144.49 475.16 118.78C465.4 104.49 447.35 85.16 440.99 76.31C440.99 76.31 442.54 83.3 438.01 87.33C439.75 89.64 466.18 126.22 477.18 153.4C488.17 180.57 497.29 209.95 497.29 209.95C485.33 205.58 438.05 188.17 425 188.12C425 188.12 429.58 192.64 429.49 201C429.39 208.8 419.54 204.67 425 206.43C459.91 217.55 508.65 230.84 538.71 262.44C550.57 274.97 568.12 298.77 576.37 314.42C582.32 325.59 591.3 305.66 589.84 298.77C584.43 273.41 540.22 233.75 521.8 220.67Z" id="ad4yertFk"></path><path d="M51.13 -210.16C51.13 -210.16 53.68 -216.83 61.27 -215.73C68.86 -214.63 120.31 -205.14 144.78 -192.77C169.27 -180.39 196.87 -165.78 214.13 -143.67C218.71 -137.8 216.85 -133.5 216.85 -133.5C216.22 -128.56 211.16 -89 210.53 -84.05C210.53 -84.05 208.69 -74.15 199.92 -71.51C191.13 -68.87 19.25 -17.3 19.25 -17.3C19.25 -17.3 10.04 -15 10.04 -25.32C10.04 -30.48 10.04 -71.79 10.04 -76.95C10.04 -76.95 10.97 -83.16 13.22 -90.42C15.47 -97.7 51.13 -210.16 51.13 -210.16" id="akazGCWa6"></path><path d="M190.85 -94.37C163.69 -122.68 99.2 -155.67 51.41 -160.63C50.06 -160.75 48.75 -159.87 48.32 -158.44C48.32 -158.44 9.99 -34.7 9.99 -32.65C9.99 -31.65 10.41 -30.7 11.13 -30.08C11.65 -29.65 12.31 -29.41 12.96 -29.41C13.2 -29.41 13.44 -29.44 13.69 -29.5C31.65 -34.9 175.36 -78.06 193.33 -83.46C194.46 -83.78 195.04 -84.49 195.24 -85.74C195.6 -87.95 194.77 -90.29 190.85 -94.37" id="ff6hADwXi"></path><path d="M10.05 -31.32C10.05 -59.69 10.05 -75.46 10.05 -78.61C10.05 -78.61 42.6 -158.23 49.11 -206.64C151.36 -190.56 200.25 -132.73 200.25 -132.73C199.91 -129.58 198.23 -113.84 195.21 -85.51L10.05 -31.32Z" id="a2FBaC6eF3"></path><path d="M53.93 -61.22C53.93 -51.77 46.9 -44.12 38.22 -44.12C29.54 -44.12 22.51 -51.77 22.51 -61.22C22.51 -70.68 29.54 -78.33 38.22 -78.33C46.9 -78.33 53.93 -70.68 53.93 -61.22" id="cJ4WD6S9w"></path><path d="M84.46 -87.82C84.46 -78.37 77.44 -70.72 68.75 -70.72C60.07 -70.72 53.04 -78.37 53.04 -87.82C53.04 -97.27 60.07 -104.93 68.75 -104.93C77.44 -104.93 84.46 -97.27 84.46 -87.82" id="h18jadfPXd"></path><path d="M121.1 -81.17C121.1 -71.72 114.07 -64.07 105.39 -64.07C96.71 -64.07 89.68 -71.72 89.68 -81.17C89.68 -90.62 96.71 -98.28 105.39 -98.28C114.07 -98.28 121.1 -90.62 121.1 -81.17" id="b3zHLNoi"></path><path d="M151.63 -107.76C151.63 -98.32 144.61 -90.66 135.92 -90.66C127.24 -90.66 120.21 -98.32 120.21 -107.76C120.21 -117.22 127.24 -124.87 135.92 -124.87C144.61 -124.87 151.63 -117.22 151.63 -107.76" id="b2tgUpqTXc"></path><path d="M188.27 -101.12C188.27 -91.67 181.24 -84.01 172.56 -84.01C163.88 -84.01 156.85 -91.67 156.85 -101.12C156.85 -110.57 163.88 -118.22 172.56 -118.22C181.24 -118.22 188.27 -110.57 188.27 -101.12" id="a3gjhBNFp2"></path><path d="M199.92 -141.24C172.76 -169.55 99.2 -202.21 51.41 -207.17C50.06 -207.3 48.76 -206.41 48.32 -204.98C48.32 -204.98 17.9 -113.04 10.51 -87.82C9.44 -84.17 9.99 -79.45 9.99 -79.19C9.99 -78.2 10.41 -77.25 11.13 -76.63C11.65 -76.19 12.3 -75.96 12.96 -75.96C13.2 -75.96 13.44 -75.99 13.68 -76.04C32.49 -81.19 182.94 -122.4 201.74 -127.55C202.87 -127.87 203.73 -128.88 203.94 -130.14C204.3 -132.34 203.84 -137.15 199.92 -141.24" id="k3R0c4qswE"></path><path d="M199.92 -141.24C172.76 -169.55 99.2 -202.21 51.41 -207.17C50.06 -207.3 48.76 -206.41 48.32 -204.98C48.32 -204.98 9.99 -87.9 9.99 -85.84C9.99 -84.85 10.41 -83.9 11.13 -83.28C11.65 -82.84 12.3 -82.61 12.96 -82.61C13.2 -82.61 13.44 -82.64 13.68 -82.69C32.12 -87.84 179.62 -129 198.05 -134.15C199.19 -134.47 200.05 -135.47 200.25 -136.74C200.61 -138.94 203.84 -137.15 199.92 -141.24" id="a2Y8rqgr8V"></path><path d="M126.75 -146.66L100.48 -143.81L89.46 -159.87L115.5 -163.22L126.75 -146.66ZM51.66 -112.75L78.89 -116.25L87.66 -103.34L121.75 -112.85L116.13 -121.05L141.89 -124.36L145.37 -119.23L179.38 -128.91L179.21 -129.17L181.19 -129.42C194.43 -133.19 201.78 -135.29 203.25 -135.71C202.65 -137.5 201.66 -139.43 199.93 -141.24C196.18 -145.13 191.5 -149.11 186.19 -153.09C184.74 -152.94 177.47 -152.15 164.39 -150.73L152.54 -167.99C157.73 -168.66 160.61 -169.03 161.19 -169.1C140.21 -180.81 115.2 -191.45 91.48 -198.59C92.07 -197.73 94.99 -193.42 100.26 -185.67L73.71 -182.79L63.52 -197.64C76.44 -199.3 83.62 -200.22 85.05 -200.41C73.14 -203.71 61.67 -206.11 51.41 -207.17C50.06 -207.29 48.76 -206.41 48.32 -204.98C48.32 -204.98 39.92 -181.14 31.42 -153.52C32.82 -153.62 39.85 -154.15 52.51 -155.11L62.94 -139.75L35.22 -136.75C31.48 -142.09 29.4 -145.05 28.98 -145.65C24.58 -131.32 19.4 -116.64 15.85 -104.93C16.71 -103.73 21.03 -97.72 28.81 -86.91L62.86 -96.42L51.66 -112.75Z" id="cOp3Kpzrv"></path><path d="M70.26 -114.71C75.19 -116.16 85.04 -122.94 94.77 -124.39C104.5 -125.85 116.33 -120.29 119.85 -120.74C123.38 -121.19 130.82 -122.15 133.98 -122.56C137.13 -122.96 151.25 -131.46 159.46 -132.7C167.66 -133.95 178.66 -127.64 182.61 -128.82C182.61 -128.82 187 -127.47 182.61 -126.87C178.22 -126.27 166.72 -131.16 160.35 -130C151.18 -128.34 144.63 -122.6 133.98 -120.74C127.56 -119.62 123.03 -118.7 119.19 -118.37C112.08 -117.74 103.32 -123.55 94.35 -121.89C85.38 -120.22 80.46 -113.62 70.26 -112.55C64.22 -111.91 66.5 -113.6 70.26 -114.71" id="b2YJBWmcwj"></path><path d="M43.88 -95.02C51.17 -96.87 59.58 -99.96 62.86 -96.42C61.77 -95.96 56.29 -93.68 46.43 -89.56C35.86 -87.97 29.99 -87.09 28.81 -86.92C28.81 -86.92 29.38 -91.35 43.88 -95.02" id="a5Q3kMtXlZ"></path><path d="M104.06 -112C113.15 -114.36 119.1 -114.82 121.75 -112.85C120.64 -112.4 115.11 -110.13 105.15 -106.04C94.66 -104.42 88.83 -103.52 87.66 -103.34C87.66 -103.34 89.17 -108.12 104.06 -112" id="d5o8hL4q1S"></path><path d="M160.92 -127.37C167.53 -129.35 176.06 -130.28 178.22 -129.73C178.22 -129.73 195.67 -134.65 202.6 -135.52C202.6 -135.52 186.69 -129.59 181.75 -128.2C176.82 -126.82 145.72 -117.46 145.37 -119.23C145.02 -121 150.74 -124.33 160.92 -127.37" id="bbj11QGKVQ"></path><path d="M15.85 -104.93C15.85 -104.93 15.39 -112.89 20.48 -127.26C25.56 -141.64 27.8 -147.32 28.98 -145.65C30.15 -143.97 25.56 -125.71 23.79 -121.28C22 -116.84 19.16 -107.71 17.8 -105.9C16.45 -104.09 15.85 -104.93 15.85 -104.93" id="amdwCMeyR"></path><path d="M31.42 -153.52C31.42 -153.52 31.8 -163.66 34.09 -170.73C36.38 -177.79 40.49 -181.91 41.04 -183.57C41.59 -185.23 41.47 -193.58 43 -197.47C44.52 -201.34 47.62 -208.84 51.42 -207.17C55.21 -205.5 42.89 -178.48 41.41 -173.08C39.94 -167.68 31.42 -153.52 31.42 -153.52" id="d5mU625Pjh"></path><path d="M45.84 -154.61C50.77 -156.06 60.61 -162.83 70.34 -164.29C80.08 -165.74 91.9 -160.18 95.43 -160.64C98.95 -161.09 106.4 -162.05 109.55 -162.45C112.7 -162.86 126.83 -171.36 135.03 -172.6C143.24 -173.85 154.24 -167.53 158.18 -168.72C158.18 -168.72 162.57 -167.37 158.18 -166.76C153.8 -166.16 142.3 -171.06 135.92 -169.9C126.75 -168.24 120.21 -162.5 109.55 -160.64C103.13 -159.51 98.61 -158.6 94.77 -158.26C87.66 -157.64 78.89 -163.44 69.93 -161.78C60.96 -160.12 56.03 -153.52 45.84 -152.45C39.79 -151.81 42.07 -153.5 45.84 -154.61" id="f1xTg8BlEC"></path><path d="M57.97 -113.56C53.33 -112.96 46.92 -118.71 35.35 -116.47C23.78 -114.21 15.84 -104.92 15.84 -104.92C15.92 -104.54 16.52 -101.5 16.59 -101.11C16.59 -101.11 13.66 -103.36 17.73 -104.73C21.8 -106.11 26.07 -112.92 36 -114.09C45.92 -115.25 49.16 -111.51 55.84 -111.3C62.52 -111.09 57.97 -113.56 57.97 -113.56" id="aCJMLU1GI"></path><path d="M184.56 -129.08L187.13 -131.25L185.41 -125.34L177.39 -122.64L174.91 -129.69L184.56 -129.08Z" id="b1kPQ15Mwf"></path><path d="M47.45 -199.61C56.42 -202.31 62.26 -197.47 68.75 -198.31C75.24 -199.15 75.34 -197.2 70.34 -196.08C65.35 -194.96 52.88 -199.7 47.71 -197.87C42.55 -196.03 41.7 -190.22 41.7 -190.22C41.78 -190.8 42.46 -195.45 42.55 -196.03C42.55 -196.03 41.56 -197.84 47.45 -199.61" id="boaHZWDD9"></path><path d="M59.48 -139.37C72.06 -141.57 72.94 -145 82.37 -147.05C90.95 -148.91 96.3 -144.51 101.12 -144.51C108.96 -144.51 106.57 -149.72 103.93 -148.5C98.4 -145.93 87.24 -153.23 76.26 -148.5C70.66 -146.08 68.09 -142.74 59.48 -141.57C50.88 -140.39 54.97 -138.59 59.48 -139.37" id="a8m3SRB4p"></path><path d="M122.82 -146.23C128.07 -146.8 136.18 -152.1 144.19 -153.51C152.21 -154.94 159.38 -150.19 164.4 -150.73C169.41 -151.27 170.44 -154.22 166.52 -153.78C162.6 -153.35 152.59 -158.06 142.86 -155.97C133.12 -153.9 129.3 -149.54 122.82 -148.49C116.33 -147.46 118.89 -145.81 122.82 -146.23" id="b7j0ebKaP"></path><path d="M37.53 -137C42.28 -138.94 42.61 -141.23 38.22 -139.98C33.83 -138.73 28.75 -140.88 24.83 -139.18C24.77 -139.01 24.44 -138.16 23.86 -136.62C29.79 -135.58 34.35 -135.71 37.53 -137Z" id="e2Y6hAVNls"></path><path d="M56.03 -184.65C64.31 -185.06 68.88 -182.27 74.76 -182.91C80.63 -183.54 78.17 -185.18 73.87 -184.92C69.58 -184.65 63.37 -187.77 54.45 -185.89C45.54 -184.03 45.98 -182.09 39.08 -180.46C38.93 -180.22 37.68 -178.31 37.52 -178.07C37.52 -178.07 40.64 -178.77 44.14 -180.46C47.64 -182.16 51.46 -184.43 56.03 -184.65" id="cKsdw8Qr"></path><path d="M98.96 -185.53C104.38 -185.88 108.93 -190.22 114.73 -190.65C114.39 -190.78 111.71 -191.79 111.37 -191.92C111.37 -191.92 104.5 -188.01 98.96 -187.57C93.43 -187.14 93.24 -185.15 98.96 -185.53" id="b1vCKvmHfk"></path></defs><g><g><g><use xlink:href="#eCeVcWhu2" opacity="1" fill="#1d1d1b" fill-opacity="1"></use><g><use xlink:href="#eCeVcWhu2" opacity="1" fill-opacity="0" stroke="#000000" stroke-width="1" stroke-opacity="0"></use></g></g><g><use xlink:href="#c4wCXASswB" opacity="1" fill="#1d1d1b" fill-opacity="1"></use><g><use xlink:href="#c4wCXASswB" opacity="1" fill-opacity="0" stroke="#000000" stroke-width="1" stroke-opacity="0"></use></g></g><g><use xlink:href="#a2C86nmlWO" opacity="1" fill="#1d1d1b" fill-opacity="1"></use><g><use xlink:href="#a2C86nmlWO" opacity="1" fill-opacity="0" stroke="#000000" stroke-width="1" stroke-opacity="0"></use></g></g><g><use xlink:href="#mfeiRJrdv" opacity="1" fill="#1d1d1b" fill-opacity="1"></use><g><use xlink:href="#mfeiRJrdv" opacity="1" fill-opacity="0" stroke="#000000" stroke-width="1" stroke-opacity="0"></use></g></g></g><g><g><use xlink:href="#a18aicyWQr" opacity="1" fill="#fac036" fill-opacity="1"></use><g><use xlink:href="#a18aicyWQr" opacity="1" fill-opacity="0" stroke="#000000" stroke-width="1" stroke-opacity="0"></use></g></g><g><use xlink:href="#ad4yertFk" opacity="1" fill="#e48c15" fill-opacity="1"></use><g><use xlink:href="#ad4yertFk" opacity="1" fill-opacity="0" stroke="#000000" stroke-width="1" stroke-opacity="0"></use></g></g></g><g><g><use xlink:href="#akazGCWa6" opacity="1" fill="#f4900c" fill-opacity="1"></use><g><use xlink:href="#akazGCWa6" opacity="1" fill-opacity="0" stroke="#000000" stroke-width="1" stroke-opacity="0"></use></g></g><g><use xlink:href="#ff6hADwXi" opacity="1" fill="#a0041e" fill-opacity="1"></use><g><use xlink:href="#ff6hADwXi" opacity="1" fill-opacity="0" stroke="#000000" stroke-width="1" stroke-opacity="0"></use></g></g><g><use xlink:href="#a2FBaC6eF3" opacity="1" fill="#a0041e" fill-opacity="1"></use><g><use xlink:href="#a2FBaC6eF3" opacity="1" fill-opacity="0" stroke="#000000" stroke-width="1" stroke-opacity="0"></use></g></g><g><use xlink:href="#cJ4WD6S9w" opacity="1" fill="#be1931" fill-opacity="1"></use><g><use xlink:href="#cJ4WD6S9w" opacity="1" fill-opacity="0" stroke="#000000" stroke-width="1" stroke-opacity="0"></use></g></g><g><use xlink:href="#h18jadfPXd" opacity="1" fill="#be1931" fill-opacity="1"></use><g><use xlink:href="#h18jadfPXd" opacity="1" fill-opacity="0" stroke="#000000" stroke-width="1" stroke-opacity="0"></use></g></g><g><use xlink:href="#b3zHLNoi" opacity="1" fill="#be1931" fill-opacity="1"></use><g><use xlink:href="#b3zHLNoi" opacity="1" fill-opacity="0" stroke="#000000" stroke-width="1" stroke-opacity="0"></use></g></g><g><use xlink:href="#b2tgUpqTXc" opacity="1" fill="#be1931" fill-opacity="1"></use><g><use xlink:href="#b2tgUpqTXc" opacity="1" fill-opacity="0" stroke="#000000" stroke-width="1" stroke-opacity="0"></use></g></g><g><use xlink:href="#a3gjhBNFp2" opacity="1" fill="#be1931" fill-opacity="1"></use><g><use xlink:href="#a3gjhBNFp2" opacity="1" fill-opacity="0" stroke="#000000" stroke-width="1" stroke-opacity="0"></use></g></g><g><use xlink:href="#k3R0c4qswE" opacity="1" fill="#f4900c" fill-opacity="1"></use><g><use xlink:href="#k3R0c4qswE" opacity="1" fill-opacity="0" stroke="#000000" stroke-width="1" stroke-opacity="0"></use></g></g><g><use xlink:href="#a2Y8rqgr8V" opacity="1" fill="#f4900c" fill-opacity="1"></use><g><use xlink:href="#a2Y8rqgr8V" opacity="1" fill-opacity="0" stroke="#000000" stroke-width="1" stroke-opacity="0"></use></g></g><g><use xlink:href="#cOp3Kpzrv" opacity="1" fill="#ffcc4d" fill-opacity="1"></use><g><use xlink:href="#cOp3Kpzrv" opacity="1" fill-opacity="0" stroke="#000000" stroke-width="1" stroke-opacity="0"></use></g></g><g><use xlink:href="#b2YJBWmcwj" opacity="1" fill="#f4900c" fill-opacity="1"></use><g><use xlink:href="#b2YJBWmcwj" opacity="1" fill-opacity="0" stroke="#000000" stroke-width="1" stroke-opacity="0"></use></g></g><g><use xlink:href="#a5Q3kMtXlZ" opacity="1" fill="#f4900c" fill-opacity="1"></use><g><use xlink:href="#a5Q3kMtXlZ" opacity="1" fill-opacity="0" stroke="#000000" stroke-width="1" stroke-opacity="0"></use></g></g><g><use xlink:href="#d5o8hL4q1S" opacity="1" fill="#f4900c" fill-opacity="1"></use><g><use xlink:href="#d5o8hL4q1S" opacity="1" fill-opacity="0" stroke="#000000" stroke-width="1" stroke-opacity="0"></use></g></g><g><use xlink:href="#bbj11QGKVQ" opacity="1" fill="#f4900c" fill-opacity="1"></use><g><use xlink:href="#bbj11QGKVQ" opacity="1" fill-opacity="0" stroke="#000000" stroke-width="1" stroke-opacity="0"></use></g></g><g><use xlink:href="#amdwCMeyR" opacity="1" fill="#ffcc4d" fill-opacity="1"></use><g><use xlink:href="#amdwCMeyR" opacity="1" fill-opacity="0" stroke="#000000" stroke-width="1" stroke-opacity="0"></use></g></g><g><use xlink:href="#d5mU625Pjh" opacity="1" fill="#ffcc4d" fill-opacity="1"></use><g><use xlink:href="#d5mU625Pjh" opacity="1" fill-opacity="0" stroke="#000000" stroke-width="1" stroke-opacity="0"></use></g></g><g><use xlink:href="#f1xTg8BlEC" opacity="1" fill="#f4900c" fill-opacity="1"></use><g><use xlink:href="#f1xTg8BlEC" opacity="1" fill-opacity="0" stroke="#000000" stroke-width="1" stroke-opacity="0"></use></g></g><g><use xlink:href="#aCJMLU1GI" opacity="1" fill="#f4900c" fill-opacity="1"></use><g><use xlink:href="#aCJMLU1GI" opacity="1" fill-opacity="0" stroke="#000000" stroke-width="1" stroke-opacity="0"></use></g></g><g><use xlink:href="#b1kPQ15Mwf" opacity="1" fill="#f4900c" fill-opacity="1"></use><g><use xlink:href="#b1kPQ15Mwf" opacity="1" fill-opacity="0" stroke="#000000" stroke-width="1" stroke-opacity="0"></use></g></g><g><use xlink:href="#boaHZWDD9" opacity="1" fill="#f4900c" fill-opacity="1"></use><g><use xlink:href="#boaHZWDD9" opacity="1" fill-opacity="0" stroke="#000000" stroke-width="1" stroke-opacity="0"></use></g></g><g><use xlink:href="#a8m3SRB4p" opacity="1" fill="#f4900c" fill-opacity="1"></use><g><use xlink:href="#a8m3SRB4p" opacity="1" fill-opacity="0" stroke="#000000" stroke-width="1" stroke-opacity="0"></use></g></g><g><use xlink:href="#b7j0ebKaP" opacity="1" fill="#f4900c" fill-opacity="1"></use><g><use xlink:href="#b7j0ebKaP" opacity="1" fill-opacity="0" stroke="#000000" stroke-width="1" stroke-opacity="0"></use></g></g><g><use xlink:href="#e2Y6hAVNls" opacity="1" fill="#f4900c" fill-opacity="1"></use><g><use xlink:href="#e2Y6hAVNls" opacity="1" fill-opacity="0" stroke="#000000" stroke-width="1" stroke-opacity="0"></use></g></g><g><use xlink:href="#cKsdw8Qr" opacity="1" fill="#f4900c" fill-opacity="1"></use><g><use xlink:href="#cKsdw8Qr" opacity="1" fill-opacity="0" stroke="#000000" stroke-width="1" stroke-opacity="0"></use></g></g><g><use xlink:href="#b1vCKvmHfk" opacity="1" fill="#f4900c" fill-opacity="1"></use><g><use xlink:href="#b1vCKvmHfk" opacity="1" fill-opacity="0" stroke="#000000" stroke-width="1" stroke-opacity="0"></use></g></g></g></g></svg>